<?xml version="1.0" standalone="no"?>
<!DOCTYPE svg PUBLIC "-//W3C//DTD SVG 20010904//EN"
 "http://www.w3.org/TR/2001/REC-SVG-20010904/DTD/svg10.dtd">
<svg version="1.0" xmlns="http://www.w3.org/2000/svg"
 width="500.000000pt" height="500.000000pt" viewBox="0 0 500.000000 500.000000"
 preserveAspectRatio="xMidYMid meet">

<g transform="translate(0.000000,500.000000) scale(0.100000,-0.100000)"
fill="#000000" stroke="none">
<path d="M0 2500 l0 -2500 2500 0 2500 0 0 1033 0 1032 -47 -83 c-83 -146
-140 -184 -194 -126 -20 21 -24 36 -24 82 l1 57 -41 -60 c-65 -95 -109 -104
-145 -31 -39 82 -17 182 58 259 65 68 164 103 213 76 13 -7 39 -12 58 -10 39
3 39 14 -9 -121 -30 -84 -40 -151 -26 -165 18 -18 61 16 95 74 20 34 42 62 49
63 9 0 12 299 12 1460 l0 1460 -2500 0 -2500 0 0 -2500z m2660 1175 c0 -39 -3
-45 -21 -45 -12 0 -23 8 -26 20 -5 18 -14 20 -108 20 -94 0 -103 -2 -108 -20
-3 -12 -14 -20 -26 -20 -18 0 -21 6 -21 45 l0 45 155 0 155 0 0 -45z m-771
-117 c229 -131 214 -120 197 -143 -13 -18 -22 -14 -176 74 -89 51 -163 91
-165 89 -7 -6 -58 -798 -52 -804 5 -5 410 198 429 215 4 3 -2 31 -12 61 -66
189 28 404 218 497 73 36 80 38 177 38 97 0 104 -2 177 -38 53 -26 91 -54 127
-93 l51 -55 255 132 c141 72 258 129 261 126 7 -7 -56 -937 -64 -959 -6 -13
-39 2 -199 95 -106 62 -193 117 -193 122 0 6 4 16 9 24 7 10 45 -8 172 -82
113 -66 165 -91 167 -81 5 21 59 799 56 802 -2 3 -410 -203 -441 -222 -1 -1 8
-28 19 -61 16 -47 19 -78 16 -145 -7 -154 -83 -273 -221 -346 -72 -39 -73 -39
-187 -39 -110 0 -118 2 -182 33 -44 21 -84 52 -120 91 l-55 58 -258 -133
c-143 -73 -260 -132 -262 -130 -3 3 55 871 63 934 3 23 8 42 11 42 3 0 85 -46
182 -102z m216 -962 c11 -17 13 -30 6 -48 -12 -33 -58 -68 -87 -68 -28 0 -32
15 -7 24 12 5 14 9 5 18 -20 20 -14 65 10 82 32 22 55 20 73 -8z m876 5 c22
-18 24 -26 23 -110 l-1 -91 42 63 c93 138 195 193 244 131 34 -44 27 -104 -44
-364 -36 -131 -75 -280 -86 -332 -11 -51 -24 -97 -30 -102 -13 -14 -62 25 -74
58 -14 39 7 142 76 374 33 112 63 226 66 253 6 47 5 49 -20 49 -71 0 -206
-250 -277 -510 -48 -178 -51 -186 -76 -182 -32 5 -54 41 -54 86 0 47 8 77 80
311 58 191 71 273 47 293 -33 28 -141 -107 -235 -295 -43 -85 -105 -273 -117
-355 -6 -37 -11 -48 -26 -48 -27 0 -57 37 -64 80 l-6 38 -42 -45 c-49 -53 -89
-73 -149 -73 -89 0 -148 70 -148 175 0 54 2 58 42 93 23 20 75 68 115 105 64
59 78 68 106 65 23 -2 31 -7 27 -18 -9 -26 -3 -123 12 -200 l14 -75 27 40 c31
47 52 106 113 313 24 84 44 173 44 198 0 30 5 46 15 50 25 10 64 -5 81 -31 13
-21 14 -32 4 -82 -7 -31 -15 -64 -17 -73 -3 -8 5 1 17 20 76 119 174 210 226
210 12 0 32 -9 45 -19z m1249 -8 c19 -25 21 -38 18 -111 -3 -77 -2 -82 12 -61
84 129 163 199 222 199 33 0 64 -30 72 -71 7 -39 -2 -85 -73 -344 -32 -121
-67 -258 -77 -305 -9 -47 -23 -91 -29 -98 -17 -19 -50 -1 -71 40 -21 41 -10
113 52 325 72 243 94 332 88 348 -10 24 -48 18 -77 -12 -40 -42 -120 -182
-155 -270 -30 -75 -112 -352 -112 -379 0 -39 -62 -17 -81 29 -16 39 0 116 72
347 28 91 53 192 56 225 10 117 -41 102 -136 -39 -109 -161 -180 -333 -221
-528 -9 -46 -15 -58 -30 -58 -28 0 -60 47 -61 89 l0 36 -17 -25 c-43 -63 -85
-100 -113 -100 -56 0 -86 54 -76 137 l5 45 -28 -49 c-40 -69 -93 -115 -122
-104 -56 19 -78 139 -41 222 50 113 200 199 274 158 13 -7 39 -12 57 -10 17 1
32 -2 32 -7 0 -5 -11 -34 -25 -64 -31 -67 -60 -181 -52 -202 17 -43 75 2 121
93 51 100 150 455 140 498 -7 27 13 38 50 29 56 -14 67 -50 42 -144 -7 -29
-12 -52 -10 -52 1 0 14 20 28 44 32 55 121 153 161 178 44 26 80 23 105 -9z
m-2616 -189 c22 -21 20 -60 -4 -84 -23 -23 -33 -24 -61 -10 -28 15 -26 74 3
94 28 20 43 20 62 0z m-186 -56 c48 -48 -64 -342 -172 -452 -79 -81 -136 -86
-184 -16 -19 28 -23 45 -20 80 l5 46 -32 -16 c-17 -8 -40 -28 -51 -44 -79
-120 -215 -125 -265 -10 l-20 45 -39 -59 c-61 -95 -108 -115 -155 -67 -34 33
-32 82 5 196 17 51 29 102 28 113 -4 19 -8 17 -44 -20 -46 -47 -105 -155 -129
-236 -9 -32 -22 -58 -29 -58 -7 0 -23 11 -35 24 -19 21 -22 33 -19 78 2 29 15
92 28 140 14 48 21 90 16 95 -22 22 -148 -189 -176 -294 -12 -48 -29 -54 -60
-21 -28 31 -26 85 9 204 17 54 31 115 34 134 4 41 33 51 73 26 28 -19 30 -45
9 -107 -9 -27 -10 -37 -2 -25 65 101 133 155 178 141 35 -11 42 -45 25 -111
-14 -55 -13 -57 2 -34 31 48 118 129 145 136 16 3 39 2 52 -4 39 -18 40 -52 6
-147 -37 -101 -40 -145 -12 -145 28 0 67 52 112 146 57 119 127 171 218 161
34 -4 52 -13 73 -36 30 -34 34 -51 18 -82 -14 -25 -60 -26 -60 -1 0 34 -29 62
-64 62 -62 0 -116 -64 -116 -139 0 -53 7 -69 41 -86 38 -20 82 -19 109 3 20
16 21 19 6 31 -34 28 -6 101 39 101 28 0 49 -32 40 -60 -8 -25 7 -26 28 -2 26
28 38 73 39 139 1 55 4 62 24 67 31 8 71 -9 78 -32 4 -11 0 -53 -9 -93 -16
-78 -19 -137 -9 -163 8 -22 50 -20 83 3 68 49 155 282 131 347 -16 41 19 71
48 42z m117 -110 c39 -18 39 -45 1 -147 -43 -111 -45 -131 -12 -131 35 0 72
34 115 109 66 111 146 171 231 171 55 0 84 -29 77 -77 -15 -91 -129 -160 -214
-130 -21 7 -23 5 -23 -21 0 -59 77 -98 144 -72 36 13 102 76 116 110 11 27 40
43 40 22 0 -18 -60 -101 -101 -141 -55 -53 -114 -81 -168 -81 -36 0 -49 6 -77
34 -19 19 -37 48 -40 65 l-6 31 -28 -38 c-64 -88 -126 -114 -168 -69 -37 40
-36 72 8 206 22 68 40 134 40 147 0 27 23 32 65 12z"/>
<path d="M2399 3522 c-148 -49 -243 -170 -256 -323 -7 -82 18 -182 45 -177 19
4 19 17 3 98 -31 154 72 320 223 361 65 18 159 12 215 -12 64 -27 79 -44 53
-58 -16 -8 -31 -6 -68 10 -32 15 -67 21 -110 21 -110 -1 -193 -53 -241 -149
-35 -74 -38 -167 -5 -230 12 -23 22 -45 22 -47 0 -3 -19 -15 -41 -27 l-42 -21
49 -49 c27 -28 74 -62 104 -77 49 -24 67 -27 155 -27 87 0 107 3 157 27 72 34
137 98 173 172 37 76 46 189 20 265 -17 53 -21 56 -43 42 -11 -7 -10 -19 3
-66 43 -145 -31 -302 -174 -372 -47 -24 -69 -28 -136 -28 -68 0 -89 4 -137 28
-32 16 -58 32 -58 36 0 4 10 12 21 18 16 7 32 4 60 -10 21 -10 65 -21 96 -24
203 -18 356 205 264 386 l-21 40 41 24 41 25 -42 46 c-90 98 -246 139 -371 98z
m199 -152 c23 -10 42 -25 42 -32 -1 -7 -18 -41 -39 -76 l-38 -63 -52 91 c-28
49 -51 92 -51 95 0 13 100 2 138 -15z m-136 -62 l36 -63 -49 -3 c-26 -2 -73
-2 -104 0 l-56 3 26 40 c26 39 80 85 100 85 6 0 27 -28 47 -62z m241 -36 c11
-18 21 -59 24 -92 l6 -60 -87 0 -87 0 36 63 c20 34 43 77 52 95 20 38 31 37
56 -6z"/>
<path d="M2230 2134 c-64 -51 -64 -50 -46 -75 9 -13 16 -36 16 -50 0 -42 45
-89 84 -89 43 0 56 16 56 67 0 39 -43 167 -59 177 -4 3 -27 -11 -51 -30z"/>
<path d="M3440 2174 c-38 -32 -70 -93 -70 -132 0 -28 26 -62 47 -62 30 0 126
149 115 180 -6 18 -32 39 -49 40 -6 0 -26 -12 -43 -26z"/>
<path d="M1780 2144 c-28 -26 -50 -51 -50 -56 0 -18 52 -29 86 -18 58 20 86
88 45 110 -28 14 -27 15 -81 -36z"/>
<path d="M4700 2187 c-65 -33 -108 -154 -68 -194 26 -26 60 -4 101 64 48 81
52 98 28 122 -24 24 -28 25 -61 8z"/>
</g>
</svg>
